<?xml version="1.0" encoding="UTF-8"?>
<svg id="Layer_1" xmlns="http://www.w3.org/2000/svg" version="1.1" viewBox="0 0 176 89">
  <!-- Generator: Adobe Illustrator 30.0.0, SVG Export Plug-In . SVG Version: 2.1.1 Build 123)  -->
  <defs>
    <style>
      .st0 {
        fill: #f05434;
      }
    </style>
  </defs>
  <g>
    <path class="st0" d="M169.8,71.05c-.42.14-.32.29-.53.52-1.64,1.8-3.11,3.79-4.9,5.49-.53.5-1.16.88-1.73,1.33-.27.21-.52.58-.79.78-.27.2-.66.3-.94.55-.36.32-.45.85-.92,1.1-.72,0-2.14.52-2.78.4-.11-.02-.19-.13-.31-.14-.58-.1-1.5.27-1.58-.52-.06-.55.29-.65.51-1.03.45-.79.09-1.69.8-2.46.2-.21.65-.43.8-.65.18-.27.23-.72.39-1.03.2-.37.77-.82,1.04-1.2.51-.72.78-1.48,1.37-2.23.37-.47,1.13-1.4,1.53-1.79.23-.22.56-.29.83-.48.12-.09.76-.75.79-.86.13-.43-.03-1.16-.3-1.52-.4-.52-1.37-.49-1.94-1.16-.18-.21-.29-.5-.47-.69-.41-.44-1.2-.53-1.4-1.22,0-.87,0-1.81.08-2.67.04-.45.32-1.02.12-1.53-.29-.75-1.42-.74-2.01-.32-.72.52-.46,1-.74,1.65-.14.33-.56.65-.69.88-.23.42-.13.95-.56,1.33-.15.14-.39.19-.51.29-.51.43-.89,2.05-1.37,2.75-.55.8-1.27,1.19-1.84,1.82-.39.44-.6,1.08-.99,1.56-.48.59-1.3,1.16-1.76,1.75-.23.29-.37.7-.58.99-.99,1.41-2.47,2.33-3.76,3.41-.36.3-.85.97-1.21,1.18-.45.28-1.16.31-1.67.64-.49.31-.98,1.08-1.5,1.26-.39.14-.89.1-1.32.32-.34.17-.59.59-.88.76-.24.14-1.58.73-1.82.79-.48.11-1.06-.05-1.53.02-.29.04-.59.29-.98.29-.35,0-.73-.17-1.11-.16-.39.01-.75.3-.98.3-.2,0-.4-.18-.61-.22-.21-.04-.44,0-.64-.04-.06-.01-1.11-.52-1.17-.56-.58-.41-.23-1.36-.37-1.85-.06-.21-.43-.47-.43-.84,0-.38.46-1.24.56-1.66.1-.07.2-.13.32-.16.32-.09,1.7-.26,2.01-.21.16.02.27.16.44.15.18,0,.9-.34,1.17-.4.97-.24,1.58-.28,2.52-.75.35-.18.73-.5,1.06-.66.8-.38,1.7-.51,2.51-.98,1.51-.88,3.03-2.22,4.55-3.21.62-.4.68-.74,1.1-1.22.31-.35.75-.48,1.05-.89.28-.38.45-.93.74-1.36.17-.25.41-.4.58-.69.39-.67.21-.76.24-1.41.03-.71.31-1.11.03-1.88-.31-.89-2.16-2.06-3.09-2.07-1.73-.01-2.22.81-3.51,1.41-1.43.65-3.63,1.13-4.7,2.32-.4.45-.35.67-.98,1.02-2.27,1.26-3.97,3.23-5.57,5.26-.31.39-.72.78-.98,1.13-.19.26-.36.76-.53,1-.55.77-1.69,1.62-2.25,2.4-.49.68-.95,1.59-1.68,2.06-1.18.76-2.47,1.36-3.66,2.22-.5.36-.93.91-1.48,1.2-1.64.86-2.27-.05-1.93-1.66.17-.82.45-1.3.6-2.25.08-.52.41-.71.61-1.11.2-.4.26-.87.51-1.29.53-.91,1.04-1.17,1.4-2.34.21-.7.16-1.6.31-2.1.04-.12.33-.47.39-.65.22-.63.08-1.54-.44-2-.51-.46-1.75-1.09-2.45-1-.26.03-.36.2-.53.22-.22.03-.4-.1-.65-.07-.38.05-.62.4-.96.54-.35.15-.88.16-1.19.3-.26.11-.73.57-1.03.76-.98.59-2.04,1.07-3.02,1.67-.49.23-1.23-.19-1.18-.74.02-.2.31-.89.41-1.09.35-.65.63-.71.83-1.57.45-1.92.18-3.55-2.07-3.75-.78-.07-1.42.03-2.11.42-.43.24-.69.66-1.05.89-.43.27-.93.26-1.36.5-.41.22-.61.63-.89.85-.26.19-.73.24-.99.4-.3.19-.44.68-.79.92-.26.18-.59.22-.86.41-.71.49-1.46,1.46-2.15,1.96-.09.07-.19.13-.29.17.14-.34.25-.68.25-1.06,0-.17-.03-.32-.07-.46.06-.26.11-.52.14-.78.07-.64-.18-1.02-.42-1.52.08-.57.13-1.12-.27-1.57-.61-.67-1.65-.41-2.12.27-.55.79-.87,1.82-1.26,2.71-.4.34-.83.88-.85,1.19-.01.2.07.39.05.57-.07.46-.99,2.11-1.3,2.52-.25.33-.6.56-.85.95-.25.4-.34.82-.59,1.21-.42.65-1.17,1.12-1.63,1.81-.31.46-.44.94-.71,1.38-.51.85-1.46,1.07-2.29,1.59-1.11.69-2.02,1.55-3.03,2.26-1.56,1.09-2.7.8-2.4-1.31.08-.54.49-1.11.57-1.6.1-.57-.03-.77.3-1.35.34-.61.44-.92.73-1.52.48-1,1.18-1.35,1.56-2.64.2-.68.14-1.59.28-2.05.04-.13.33-.46.41-.71.26-.81,0-1.67-.71-2.14-.61-.4-1.45-.9-2.19-.81-.26.03-.36.2-.53.22-.22.03-.4-.1-.65-.07-.37.04-.63.39-.96.54-.36.16-.84.18-1.17.31-.3.12-.75.59-1.08.78-.34.2-.79.38-1.14.57-.44.25-1.38.92-1.78,1.05-.4.13-.95.05-1.13-.36-.07-.16-.06-.3-.04-.46.09-.94.96-1.55,1.19-2.56.45-1.95.19-3.57-2.08-3.77-.8-.07-1.51.06-2.2.47-.39.24-.59.6-.96.83-.6.36-1.13.28-1.75.78-.19.15-.37.46-.51.56-.26.19-.73.24-.99.4-.28.17-.36.58-.61.81-.29.26-.76.34-1.08.56-.3.21-.62.52-.94.84-.17-.01-.34.03-.53.14-.16.1-.32.18-.48.24.14-.47.26-.94.33-1.44.1-.67.26-1.56-.14-2.15.11-.47.05-.92-.49-1.29-1.07-.72-1.91.6-2.48,1.31-.8.99-1.59,2-2.35,3.03-.29.39-.2.77.05,1.03-.23.63-.9,1.81-1.15,2.18-.21.3-.63.62-.85.94-.24.35-.34.8-.59,1.13-.58.8-1.76,1.61-2.49,2.33-.7.69-1.43,1.47-2.1,2.19-.21.23-.41.65-.65.85-.23.19-.6.27-.84.42-1.43.91-3.03,2.21-4.72,2.59-.64.14-1.21-.07-1.17-.81.03-.43.88-3.21,1.11-3.55.18-.27.59-.49.73-.84.2-.51.07-.87.44-1.43.34-.5.43-.83.69-1.25.19-.31.59-.67.8-.99.49-.73.86-1.49,1.38-2.21.11-.16.44-.4.53-.54.14-.23.21-.64.38-.88.16-.22.57-.44.79-.7.25-.29.36-.66.57-.93.21-.28.63-.46.79-.71.29-.45.46-.77.78-1.24.47-.68.8-1.39.24-2.14-.38-.51-1.05-.28-1.5.02-.69.46-.79,1.3-1.34,1.95-.81.96-1.84,1.88-2.63,2.9-.47.6-.75,1.33-1.18,1.89-.29.38-.81.7-1.04,1.12-.23.42-.31.98-.53,1.42-.16.34-.47.67-.62,1.03-.13.31-.2.81-.33,1.1-.18.39-.87.67-1.13,1.19-.18.37-.15.81-.28,1.15-.07.2-.29.39-.38.59-.74,1.49-.51,3.24-.06,4.79.24.83.83.7,1.41.98.2.1.42.4.61.43.18.04,1.22-.06,1.46-.1.5-.07,1.87-.59,2.39-.81.81-.33,1.48-.88,2.14-1.44.3.48-.13.99.33,1.45.48.49,1.57.31,2.13,0,1.63-.91,2.44-2.36,3.71-3.53.97-.9,2.02-1.68,2.97-2.63.33-.33.66-.66.99-.99.47-.46.66-1.32,1.08-1.72.34-.32.82-.38,1.19-.59.64-.37.85-1.04,1.26-1.58.36-.47.89-.81,1.27-1.27.31-.37.55-.94.87-1.22,1.12-.95,2.26-1.53,3.55-2.2.58-.3,1.06-.79,1.81-.72.35.03.77.34.77.72,0,.13-.52,1.48-.62,1.7-.29.64-1.16,1.58-1.31,2.06-.11.36.04.74-.1,1.1-.04.09-.91,1.57-1,1.69-.47.66-.83.75-1.26,1.65-.55,1.16-1.01,1.75-1.61,2.8-.39.67-.63,1.44-1.07,2.07-.43.6-.9.65-.65,1.56.15.55.43,1.13,1.09,1.08l1.79-.59c.38-.57.99-.94,1.43-1.43.38-.42.53-1.01.87-1.36.18-.18.45-.29.63-.49.4-.44.36-1.06.74-1.43.28-.28.79-.39,1.06-.62.2-.17.37-.55.62-.76.48-.39.91-.58,1.36-1.1.38-.45.75-1.45,1.17-1.68.16-.09.32-.06.47-.13.58-.27.66-.55,1.07-.94,1.2-1.15,2.89-2.06,4.41-2.75.5-.23,1.08-.8,1.63-.51.76.4.2,2.1-.17,2.67-.23.36-.7.7-.89,1.05-.32.6-.52,1.66-.8,2.35-.89,2.24-3.18,5.11-1.57,7.52.6.89,2.37,1.39,3.37,1.17.32-.07.82-.53,1.16-.63.48-.14,1.19-.06,1.66-.27.28-.12.59-.46.86-.63.06,1.4,1.65,1.36,2.57.8,1.53-.93,2.37-2.24,3.58-3.44.85-.84,1.86-1.52,2.71-2.36.37-.37,1.22-1.2,1.5-1.56.45-.59.52-1.34,1.26-1.73.21-.11.59-.16.81-.31.67-.42.85-1.14,1.29-1.68.3-.38.86-.72,1.2-1.13.32-.38.56-.95.95-1.29,1.06-.91,2.64-1.82,3.89-2.45.78-.39,1.93-.88,2.19.34-.35.66-.49,1.42-.84,2.08-.2.38-1.02,1.33-1.1,1.6-.07.25,0,.55-.02.8-.05.47-.32.56-.52.91-.51.87-.64,1.04-1.26,1.8-.54.66-.69,1.51-1.09,2.21-.22.39-.63.76-.87,1.14-.4.64-.66,1.46-1.05,2.1-.32.52-1.02,1-.95,1.63.09.8.57,1.62,1.48,1.32.29-.1.59-.21.88-.31.91-.31.65-.41,1.2-.96.75-.75.82-.72,1.4-1.66.29-.46.64-.54.92-.87.33-.39.36-1.05.7-1.4.28-.29.83-.41,1.1-.65.18-.16.38-.61.58-.77.38-.33.85-.5,1.26-.95.47-.51.89-1.64,1.42-1.87.22-.1.47-.09.72-.25.48-.31,1.3-1.53,1.78-1.8.37-.2.88-.3,1.29-.57.88-.58,1.07-.7,2.05-1.15.5-.23.98-.79,1.56-.53.86.38.22,2.13-.15,2.72-.23.35-.66.66-.83.96-.32.58-.54,1.66-.81,2.34-.91,2.31-3.1,5-1.62,7.5.59,1,2.04,1.38,3.15,1.28.62-.05.89-.49,1.38-.63.5-.14,1.25-.09,1.72-.28.65-.27,1.33-1.33,1.96-1.77.56-.39,1.26-.65,1.82-1.01.76-.49.96-1.25,1.75-1.69.11.07.1.15.11.26.23,1.86.8,3.49,2.51,4.5,1.06.62,4.51.73,5.77.61.54-.05,3.13-.77,3.62-.99.92-.43,2.1-1.24,3.1-1.52.52-.15.77.02,1.24-.4.81-.71,1.63-1.13,2.4-1.78.31-.26.54-.65.92-.88.62-.36,1.66-.55,2.19-.93.85-.62.81-1.53,1.65-2.26.28-.25.65-.41.92-.7.26-.27.4-.71.64-.93.16-.15.38-.18.52-.3.85-.65,1.1-1.81,1.64-2.63.23-.35.55-.6.77-1.02.11-.21.23-.72.37-.86.13-.12.63-.28.88-.5.57-.49,1.22-1.72,2.05-1.71.58,0,2.1,1.05,2.38,1.57.5.91-.73,1.79-1.16,2.42-.28.42-.26.95-.55,1.38-.54.83-2.05,1.7-2.47,2.62-.23.5-.15,1.22-.44,1.66-.24.36-.84.6-1.03.99-.18.37-.18.95-.32,1.34-.12.36-.5.77-.54,1.16-.03.25.06.56.02.86-.09.73-.45,1.16-.18,1.97.2.62,1.39,1.19,2.01,1.28.3.04.58,0,.87.03.93.13,1.82.81,2.78.4.29-.12.56-.46.83-.59.47-.22,1.07-.32,1.58-.57.46-.23,2.36-1.27,2.64-1.56.44-.47.25-.53.9-.95,1.09-.7.66-.76,1.26-1.51.21-.26.73-.57,1.01-.86.29-.3.94-.99,1.17-1.3.18-.25.23-.56.45-.82.38-.45,1.05-.68,1.48-1.03.73-.59,1.17-2.15,1.73-2.94-.17-1-1.08-1.12-1.94-.83ZM132.53,70.83c.31-.3.75-.66,1.02-.96.85-.94,1.74-1.52,2.67-2.37.54-.49.9-1.13,1.58-1.48.31-.17.68-.2.93-.34.33-.18.88-.73,1.26-.98.87-.58,1.34-.68,2.24-1.03.58-.23.55-.52,1.39-.4.37.05,1.1.83,1.19,1.2.12.52-.42,1.47-.77,1.87-.26.29-.6.45-.84.69-.64.64-1.41,1.77-2.22,2.15-.28.13-.66.15-.92.35-.31.24-.6.86-1.03,1.21-.78.65-1.19.51-1.99.84-.24.1-.49.34-.76.43-.43.13-.77.03-1.16.1-.31.06-.72.44-1.1.54-.25.07-.56.07-.84.13-.43.09-.65.37-1.17.07-.22-.13-.54-.63-.52-.89.02-.32.79-.86,1.05-1.11ZM60.05,69.68l-.86.14c-.15.54.57.82.4,1.27-.1.15-.95.09-1.09.03-.16-.08-.19-.46-.44-.53.4-.25.05-.36.11-.56.01-.04.48-.67.52-.69.28-.12.61,0,.88.11l.08-.52.18.03c0,.24.07.47.23.64v.09ZM59.3,68.35c.04.1.09.19.16.27-.07.05-.16.08-.23.08-.24.01-.84-.21-.41-.34.18-.05.32-.04.48-.01ZM55.97,75.25c-.14-.11-.37-.1-.48-.26.09-.1.22-.22.35-.25.51-.09.5.59.98.71-.46.49-.6,0-.85-.2ZM57.62,74.44c-.21-.43.45-.66.79-.44.12.18-.56.9-.79.44ZM58.79,72.92l.44.26c-.19,0-.29.24-.43.28-.69.2-.56-.3-.76-.4-.49-.25-1.15.16-.53.52-.09.16-.32.13-.43.21-.15.11-.03.28-.43.28-.89,0-.97-1.03-.1-1.13-.91-.61-.02-.62,0-.71.06-.19-.31-.11-.36-.2v-.36s1.04-.03,1.04-.03v.52c.12.36-.08.84.45.43.39-.3.73-.79,1.26-.77.14-.09-.07-.69.5-.07-.06.3-.22.49.03.75l.57.21c-.38.34-.94-.2-1.27.21ZM60.74,71.4l-.7-.02-.2-.25c-.03-.17.07-.1.19-.11.23-.02.48.02.71,0v.37ZM71.48,68.65l.33.41c-.09.16-.33.12-.43.01-.13-.13-.14-.43.1-.43ZM70.99,69.28c.3.41.68.26,1.02.4.09.04.85.51.76.62-.27.01-.47.23-.73.28-.11.02-1.04.09-1.09.08-.29-.09.01-.5.02-.64,0-.14-.36-.65.02-.73ZM69.23,74.05c-.14-.11-.19-.72.06-.78.06-.01,1.15.29,1.14.41-.09.14-1.15.41-1.2.37ZM70.51,73.23c0-.14.11-.29.07-.43-.04-.15-.21-.15-.27-.23-.24-.31.15-.81.47-.87.16-.03.93-.05.75.23l-.64.33.23.38-.23.37.26.19.49-.3-.46.82c-.27-.05-.65-.16-.66-.49ZM71.7,74.22c-.1.24-.82.04-.82-.08.06-.05.12-.15.2-.17.09-.02.66.06.62.25ZM73.02,72.7c-.27-.68-.94,0-1.08-.64,0-.05.43-.13.3-.52-.1-.3-.85.06-.74-.68l1.56-.1v.44c-.27,0-.55-.04-.74.19,0,.1.67.18.78.42.1.2.05.7-.08.9ZM92.37,75.58c0-.08.08-.47.23-.34.04.25.28.42.52.45-.14.36-.75.27-.75-.12ZM95.87,68.7c.04.42-.86.28-.9.1-.07-.31.74-.14.9-.1ZM94.44,70.43c-.01-.08.45-.77.52-.8.25-.12.65.03.9.12l.12-.53h.13c.04.15.12.27.22.38l.03.38-.87.18c-.16.54.66.87.41,1.23-.05.08-.15.06-.23.07-.72.08-.9-.02-1.31-.58v-.11s.22-.11.22-.11c-.05-.07-.13-.16-.14-.24ZM94.1,74.92c-.55-.49.06-.87.6-.63.09.1-.42.71-.6.63ZM95.09,73.21l.37.19-.35.36c-.74.22-.55-.53-1.22-.52.03-.51.28-.51.57-.74.27-.22.33-.47.79-.37v-.37c.79,0,.21.66.48.97.19.21.45.08.63.27-.38.34-.94-.2-1.27.21ZM97.04,71.7c-.31-.03-1.03.12-.89-.34l.1-.1.79.06v.37ZM107.71,68.95c.14.16.38.27.33.52-.32.05-.6-.27-.33-.52ZM107.14,69.61c.26-.08.42.24.57.29.17.05.36,0,.55.05.21.07.55.45.81.5l-.04.15c-.63.32-1.22.29-1.9.35.07-.47.04-.87.01-1.34ZM105.47,74.29c-.1-.23-.18-.58.11-.71.19.09,1.16.2,1.16.39-.15.17-1.13.4-1.26.32ZM106.8,73.02c-.05-.17-.48-.15-.16-.71.19-.33,1.04-.42,1.22-.22.17.19-.64.34-.68.48l.22.45-.19.26c.08.51.57-.11.71,0l-.49.68c-.85.05-.52-.53-.64-.94ZM107.18,74.54c-.07-.43.8-.23.82-.1.06.33-.67.11-.82.1ZM109.35,72.92c-.2.03-.27-.25-.42-.29-.18-.05-.49.17-.66-.09-.16-.24.55-.49.12-.78-.34-.23-.72,0-.59-.64.27.09,1.44-.14,1.54,0l-.04.34c-.24.06-.51,0-.68.21.7.3,1.02.36.73,1.24Z"/>
    <path class="st0" d="M45.21,32.68s.01.11.11.15c.66.28,1.19.05,1.81.06.51.01,2.4.52,2.75.85.2.19.39.59.6.82.25.28.97.79,1.06,1.11.06.22.03,1.06,0,1.32-.16,1.39-.46,1.79-1.12,2.93-.59,1-.42.9-1.3,1.69-1.21,1.09-1.99,1.43-3.33,2.27-.65.41-1.76,1.42-2.5,1.53-.39.06-.73-.03-1.15.11-.39.12-.75.5-1.08.63-.18.07-1.23.31-1.45.34-.24.04-.32-.11-.51-.14-.59-.09-.81.14-1.27.2-.33.04-.71-.04-1.03,0-.2.03-.38.18-.61.21-1.03.14-2.03-.5-3.06-.61-.58-.06-1.29.08-1.84-.12-.43-.15-.69-.63-1.23-.72-.27-.05-.54.01-.8-.03-.21-.03-.43-.18-.68-.22-1.87-.25-2.92,1.98-2.5,3.57.32,1.22,1.5,1.57,2.24,2.39.52.58.62,1.37,1.14,1.99.91,1.11,2.06,1.82,3.12,2.71.35.3.68,1.03.92,1.17.18.11.36.06.55.12.59.2.99,1.33,1.37,1.8.32.4.86.56,1.2.93.73.81,1.83,2.55,2.16,3.58.12.39.49,1.87.51,2.24s-.11.63-.08.96c.02.26.19.41.22.67.08.66-.18.95-.24,1.49-.07.65.04,1.48-.02,2.08-.02.22-.2.42-.23.61-.1.75,0,1.31-.28,2.12-.26.74-.57.79-.93,1.31-.29.42-.49,1.08-.81,1.51-.26.35-.72.66-1.01,1.01s-.53.88-.83,1.19c-.28.29-.76.49-1.05.74-.4.34-.66.96-1.05,1.27-.42.32-2.03,1.3-2.51,1.51s-1.15.36-1.64.59c-.4.19-.87.68-1.25.77-.32.08-.63-.02-.92.05-.2.05-.58.37-.81.46-1.18.47-2.13.3-3.25.46-.25.04-.45.24-.75.22-.23-.01-.43-.19-.68-.23-1.15-.17-2.25-.2-3.41-.35-.31-.04-1.15-.15-1.41-.24-.49-.16-1.13-.79-1.64-1.05s-1.06-.36-1.56-.61-.99-.69-1.47-1c-.78-.5-1.46-.66-2-1.51-.33-.52-.54-1.32-.88-1.8-.45-.64-1.19-1.29-1.74-1.84-.71-.71-.41-.88-.56-1.74-.13-.73-.56-1.48-.69-2.28-.09-.57-.04-1.08-.09-1.61-.07-.74-.43-1-.18-1.86s.44-.91.45-1.89c.01-1.51.34-2.33.74-3.76.16-.59.12-.73.2-1.3.08-.53.46-.77.69-1.18.26-.45.33-1,.57-1.46.14-.27.53-.65.59-.83.09-.26,0-.49.09-.74.14-.4.87-.93,1.15-1.31.57-.77,1.33-2.82,2.2-3.11.15-.05.32-.02.46-.06.32-.11,1.18-.49,1.45-.46.45.06.63.66.54,1.05-.06.28-.59,1.55-.75,1.8-.35.54-.74.62-1.19.97-1.86,1.42-2.33,3.97-3.29,5.92-.44.9-1.25,1.97-1.12,3.07.1.81-.13,1.52-.1,2.4.02.46.22,1.12.22,1.49,0,.7-.36,1.58-.32,2.39.12,2.75,3.05,6.02,5.05,7.77.81.71,1.57.93,2.48,1.41.35.19.93.71,1.29.69.26-.01.56-.23.84-.2.31.03.96.45,1.31.57,2,.69,2.45-.27,4.15-.31.63-.01,1.27.36,1.92.3,1.09-.11,1.7-.92,2.6-1.2.58-.18,1.43-.2,1.97-.48.22-.12,1.17-1.07,1.37-1.31.26-.3.46-.75.73-1,.63-.59,1.79-.55,2.13-1.45.1-.25.09-.52.21-.77.19-.4.65-.63.93-.93s1.08-1.63,1.14-2.01c.04-.31-.1-.65,0-1.05.12-.5.83-1.29.88-1.74.03-.27-.09-.53-.08-.82.02-.36.24-.81.24-1.19,0-.77-.46-1.5-.56-2.19-.04-.28.01-.55-.04-.85-.15-.77-.76-1.2-1.09-1.82-.21-.4-.31-.92-.55-1.32-.25-.41-1.09-.95-1.5-1.34-1.35-1.27-2.66-2.34-4.14-3.48-.3-.23-.77-.43-1.03-.69-.25-.24-.46-.72-.7-1.02-.34-.41-.75-.71-1.06-1.18s-.47-.99-.75-1.41-.84-.82-1.07-1.17c-.4-.63-1.16-2.64-1.23-3.38-.03-.31.04-.66,0-.96-.04-.24-.23-.37-.22-.68.02-.61.72-.96.49-1.74-.07-.25-.81-1.59-.99-1.77-.28-.28-1.09-.53-1.47-.77-.83-.53-1.58-1.75-2.27-2.51-.88-.97-1.9-1.72-2.58-2.87-.23-.38-.85-1.51-.95-1.88-.21-.73.78-1.44,1.48-1.08.54.27.64.77.97,1.19s1.16.95,1.38,1.31c.14.24.17.62.34.92.25.43,1.51.98,1.99,1.31,1.47,1.01,1.98,1.8,3.81,2.47,1.12.41,1.48-.37,2.27-.81.26-.14.66-.22.89-.38.32-.22.38-.82.72-1,.19-.11.46-.06.69-.13.59-.16,1.69-1.51,2.24-1.94.45-.34,1-.51,1.52-.72.78-.31,1.25-.38,2.04-.56s1.63-.86,2.32-1.03c.44-.11.58,0,1.05-.29.62-.39.52-.6,1.46-.46.23.03.41.18.61.22.8.13,1.21-.43,1.85-.67s1.09-.1,1.65-.21c.23-.04.2-.3.41-.18ZM47.3,39.59c.55-.59.86-.76.84-1.71-.01-.55-.7-2.1-1.19-2.36s-.72.09-1.11.13c-.61.08-1.38-.07-2.02-.02-.53.05-.95.38-1.47.25-.29-.07-.35-.27-.77-.19-.91.16-1.55.63-2.3,1.05-.85.48-1.57.05-2.49.56-1.58.88-3.71,1.84-5.04,3.01-.88.78-.99,1.57-.24,2.53.89,1.15,3.32,1.34,4.64,1.12s2.11-.08,3.34-.15c1.35-.08,2.02-.67,3.18-1.13.5-.2,1.32-.34,1.74-.55.1-.05,1.48-.93,1.56-.99.37-.32.92-1.12,1.32-1.55ZM26.7,41.62h-.6c-.07.55.54.49.6,0ZM29.6,43.59c.15-.64.27-1.61-.66-1.5.12.32-.32.51-.16.77.07.11.26.06.37.17.14.13.12.58.44.56ZM27.93,43.31c-.11-.08-.76-.49-.86-.53-.48-.16-.32.24-.47.4-.09.09-.47.14-.43.46l1.51.09c.18.08.27.72.46.67.53-.34.17-.8-.2-1.09Z"/>
    <path class="st0" d="M58.26,52.65c1.52-.27,1.63,1.12.93,2.08-.22.3-.77.5-1.08.71-.75.52-1.18,1.28-2.17.5-.22-.18-.61-.77-.6-1.05s.96-1.21,1.22-1.4c.13-.1,1.58-.81,1.7-.83Z"/>
  </g>
  <path class="st0" d="M104.55,24.45c-.21-.17-.4-.34-.54-.55-.1-.15-.13-.31-.15-.49,0-.06-.02-.13-.01-.19,0-.02,0-.05,0-.07-.16-.14-.46-.16-.65-.26-.27-.14-.41-.4-.48-.69-.05-.23-.04-.46,0-.68-.74-.95-1.48-1.93-2.08-2.98-.1-.17-.62-.3-.79-.47-.29-.29-.46-.68-.42-1.09.01-.14.05-.28.03-.42-.09-.55-.39-.96-.44-1.56-.05-.59-.05-1.2.1-1.78.11-.44.28-.86.46-1.28.19-.43.37-.86.63-1.25.26-.37.56-.71.88-1.03.27-.28.52-.57.78-.86.54-.63,1.11-1.28,1.8-1.76.16-.17.32-.38.4-.6-.01-.26-.09-.52-.23-.75-.09-.07-.19-.13-.3-.17-.02,0-.05.02-.07.02-.43.05-.82-.1-1.23-.18-.06.04-.11.09-.17.13-.2.16-.39.33-.6.47-.38.25-.74.52-1.03.87-.28.33-.52.7-.83,1.02-.21.22-.43.41-.65.61-.49.44-.99.87-1.44,1.35-.4.69-.72,1.42-.94,2.21.02.35.05.71.07,1.06.05.87-.19,1.72-.2,2.58,0,.1,0,.21,0,.31.19,1.02.54,2.01.98,2.96.12.15.24.29.36.44.27.32.49.63.68,1,.2.37.47.63.78.91.32.28.72.56.88.97.14.36.1.74.17,1.12,0,0,0,.01,0,.02.1.13.2.25.3.38.07.02.15.04.21.05.32.09.59.23.82.49.39.45.66,1.03.9,1.56.13.3.27.62.38.95.21.07.4.15.56.28.25.2.31.5.31.81,0,.21-.01.42-.04.63.11.26.22.52.31.79.13.39.24,2.3.56,2.42.06.02.13.03.17.07.06.05.06.15.05.23-.11,1.28-.86,2.03-1.68,2.92-.37.4-.79.76-1.21,1.11-.32.26-.65.53-.99.81,0,.07,0,.14,0,.2,0,.48-.39.87-.78,1.1-.38.23-.83.35-1.16.66-.08.08-.2.19-.23.3-.03.1,0,.23.02.33.03.22.03.44-.12.63-.15.18-.37.25-.54.39-.19.16-.3.52-.39.74-.22.51-.43,1.01-.54,1.56-.04.19-.06.38-.08.58.03.28.08.57.17.87.23.8.87,1.41,1.76,1.27.43-.07,1.05-.39.98-.9-.03-.23-.15-.43-.23-.65s-.09-.48.06-.65c.3-.34.32-.33.39-.76,0-.06-.02-.12-.02-.17-.02-.28-.04-.61.13-.85.1-.14.25-.22.41-.29,0,0,.02,0,.04-.02.06-.09.13-.18.2-.27.23-.46.49-.94.84-1.31.2-.21.44-.42.72-.5.1-.03.24-.07.34-.08,0,0,0,0,.01,0,.02-.03.04-.06.06-.11.04-.13.05-.27.11-.4.06-.13.15-.24.25-.34.19-.2.39-.37.63-.51.39-.24.86-.36,1.28-.53.58-.63,1.06-1.31,1.42-2.04.06-.25.11-.49.16-.74.14-.74.24-1.48.31-2.22.06-.73.1-1.46.12-2.2,0-.13,0-.26.02-.39.04-.95-.72-2.27-1.15-3.09-.26-.49-.53-.99-.89-1.41-.2-.24-.46-.43-.71-.63Z"/>
  <path class="st0" d="M122.14,32.4c-.03-.05-.06-.1-.09-.16-.12-.22-.26-.45-.3-.7-.01-.09-.01-.19,0-.28-.15-.35-.32-.69-.5-1.03-.09-.05-.17-.1-.24-.16-.15-.13-.28-.28-.4-.44-1-1.31-1.53-3.1-3.04-3.95-.11-.06-.16-.21-.15-.33.03-.21.1-.39.21-.56-.15-.33-.28-.68-.38-1.03-.14-.07-.28-.15-.41-.24-.24-.17-.16-.48.06-.62.08-.05.15-.13.22-.19,0-.19.03-.38.08-.56.07-.6.41-1.14.82-1.59.06-.07.14-.15.21-.23.09-.42.01-.86-.3-1.24-.13-.16-.31-.29-.51-.39-.04.03-.07.06-.11.08-.35.23-.73.3-1.08.13-.12.13-.27.23-.44.33-.22.12-.47.21-.65.4,0,0-.02.02-.02.03-.41.6-.69,1.25-.84,1.93.06.1.07.24-.02.36-.02.03-.04.06-.06.09-.08.52-.09,1.06-.03,1.6.02.04.04.07.06.11.17.32.33.63.47.96.18.43.23.89.34,1.34.09.39.29.68.51,1,.2.29.35.61.52.93.24.43.58.67,1,.96.43.31.87.62,1.27.98.5.46.6,1.24.68,1.87.05.4.09.81.15,1.21.04.29.12.58.17.87.09.51.12,1.04.06,1.56-.11,1.04-.82,1.73-1.47,2.48-.78.9-.83,1.86-1.41,2.83-.22.37-.55.8-.77,1.25-.1.39-.17.78-.21,1.19.03.11.07.21.12.31.13.05.26.09.35.2.24.29-.08.68.23.93.57.46.77.1,1.04-.4.28-.53.46-1.3,1.09-1.53.05-.02.1-.02.16-.02.11-.3.22-.59.33-.89.25-.67.52-1.34.92-1.93.21-.3.45-.59.73-.83.07-.06.14-.12.22-.18,0,0,0-.01.01-.02.29-.5.56-1.01.8-1.53.03-.32.08-.62.18-.93.1-.31.26-.64.27-.97-.29-.46-.1-1.03.07-1.52.07-.21.16-.42.23-.64-.01-.11-.03-.21-.05-.32-.03-.18-.07-.35-.11-.53Z"/>
  <path class="st0" d="M91.07,33.05c-.06-.36-.16-.71-.25-1.05-.05-.19-.21-.5-.19-.7.01-.12.25-.39.21-.48-.28-.85-.72-1.64-1.27-2.35-.62-.54-1.31-1.01-1.83-1.66-.04-.06-.07-.12-.07-.19-.36-.27-.74-.51-1.14-.74-.31-.05-.62-.06-.92-.02-.43.06-.78.16-.99.57-.14.27-.24.65-.24.92,0,.1,0,.19,0,.29.02.06.04.12.07.18.01,0,.02.01.03.01.12.05.22.11.31.2.12.12.17.27.2.43.09.07.2.14.3.2.66.36,1.15.68,1.62,1.3.13.17.25.36.42.49.24.2.78.07.82.44.04.34-.05.67-.14,1,.09.34.14.67.14.98.23.08.31.33.19.55-.14.23-.11.52-.14.78-.04.32-.17.61-.42.83-.12.11-.27.19-.42.25-.16.24-.34.48-.53.72-.58.7-1.06,1.44-1.44,2.21-.06.23-.14.46-.19.69-.05.24-.08.48-.11.73-.06.46-.17.89-.44,1.28-.04.06-.08.12-.13.17-.11.84-.09,1.69.06,2.56.09.24.16.5.23.75.14.48.32.98.8,1.21.17.08.28.27.2.46,0,.02-.02.05-.03.07.13.05.27.08.41.09.28-.14.58-.24.86-.38.39-.19.79-.51.78-.98-.02-.47-.32-.9-.52-1.31-.21-.44-.34-.88-.35-1.37-.01-.34.1-.54.36-.75.36-.29.43-.81.55-1.22.07-.26.49-.97.48-1.17,0-.08,0-.17,0-.26.06-.41.32-.79.58-1.1.26-.33.71-.63.74-1.08.01-.16.15-.29.3-.31.18-.03.34-.08.47-.16.36-.19.61-1.41.67-1.81.07-.42.04-.84-.03-1.25Z"/>
</svg>