<?xml version="1.0" encoding="UTF-8"?>
<svg id="Layer_1" xmlns="http://www.w3.org/2000/svg" version="1.1" viewBox="0 0 805 383">
  <!-- Generator: Adobe Illustrator 30.0.0, SVG Export Plug-In . SVG Version: 2.1.1 Build 123)  -->
  <defs>
    <style>
      .st0 {
        fill: #143347;
      }
    </style>
  </defs>
  <g>
    <path class="st0" d="M792.99,224.27c-1.9.92-1.33,1.55-2.19,2.79-6.7,9.6-12.5,19.95-19.96,29.15-2.21,2.73-4.99,4.89-7.43,7.39-1.16,1.19-2.11,3.09-3.29,4.19-1.19,1.12-2.95,1.83-4.14,3.2-1.52,1.77-1.64,4.34-3.72,5.79-3.43.48-9.88,3.8-13,3.63-.55-.03-.99-.48-1.54-.5-2.82-.1-6.97,2.22-7.86-1.52-.61-2.57.98-3.29,1.77-5.23,1.65-4.06-.59-8.11,2.33-12.2.8-1.12,2.81-2.43,3.42-3.61.71-1.38.64-3.58,1.24-5.15.72-1.89,3.17-4.36,4.23-6.36,1.97-3.73,2.8-7.52,5.14-11.44,1.48-2.47,4.5-7.38,6.2-9.48.97-1.19,2.51-1.74,3.64-2.8.51-.49,3.14-4.05,3.22-4.55.34-2.13-.85-5.52-2.38-7.06-2.21-2.24-6.82-1.49-9.97-4.34-1.01-.91-1.69-2.19-2.66-2.99-2.23-1.83-6.07-1.81-7.4-4.95-.51-4.13-1.08-8.64-1.26-12.78-.09-2.15.88-5.06-.36-7.35-1.84-3.38-7.21-2.67-9.77-.28-3.11,2.9-1.58,5.03-2.52,8.34-.48,1.66-2.29,3.42-2.76,4.61-.83,2.12-.02,4.6-1.85,6.7-.65.74-1.73,1.17-2.23,1.71-2.17,2.36-2.98,10.32-4.84,13.93-2.12,4.12-5.32,6.46-7.64,9.8-1.6,2.32-2.2,5.53-3.75,8.02-1.94,3.12-5.49,6.32-7.3,9.41-.89,1.53-1.35,3.57-2.15,5.09-3.84,7.31-10.32,12.6-15.82,18.54-1.55,1.67-3.47,5.14-5.02,6.38-1.99,1.59-5.33,2.19-7.57,4.06-2.15,1.79-4.02,5.75-6.37,6.93-1.76.89-4.19,1.02-6.09,2.31-1.53,1.04-2.44,3.16-3.74,4.16-1.05.8-7.09,4.46-8.19,4.86-2.21.81-5.09.43-7.28,1.05-1.37.39-2.64,1.72-4.5,1.98-1.66.23-3.57-.38-5.39-.09-1.84.3-3.39,1.88-4.47,2.01-.97.12-2.03-.59-3.05-.65-1.05-.06-2.07.31-3.07.21-.31-.03-5.62-1.78-5.9-1.93-3.04-1.61-1.95-6.31-2.92-8.6-.4-.95-2.33-1.99-2.56-3.73-.24-1.83,1.43-6.2,1.65-8.24.42-.41.9-.72,1.44-.96,1.46-.63,7.94-2.27,9.43-2.24.77.01,1.39.58,2.21.44.84-.15,4.07-2.16,5.3-2.63,4.45-1.72,7.34-2.29,11.55-5.12,1.58-1.06,3.15-2.81,4.64-3.78,3.57-2.32,7.8-3.49,11.37-6.23,6.63-5.09,13.07-12.42,19.71-18.06,2.72-2.31,2.77-3.94,4.49-6.47,1.25-1.84,3.27-2.73,4.45-4.89,1.09-1.99,1.56-4.7,2.69-6.91.66-1.28,1.69-2.17,2.32-3.66,1.45-3.41.56-3.73.3-6.85-.28-3.4.78-5.46-.99-8.98-2.04-4.05-11.56-8.48-16.01-7.94-8.27,1-10.09,5.25-15.87,8.85-6.39,3.99-16.58,7.62-20.94,13.95-1.65,2.4-1.27,3.41-4.05,5.45-10.03,7.4-16.94,17.81-23.31,28.46-1.24,2.07-2.96,4.14-3.99,5.98-.76,1.36-1.23,3.85-1.9,5.11-2.15,4-7.05,8.73-9.25,12.81-1.91,3.54-3.54,8.14-6.74,10.83-5.18,4.35-10.95,8.01-16.09,12.84-2.17,2.04-3.87,4.91-6.33,6.64-7.27,5.11-10.86,1.18-10.23-6.74.32-4.02,1.33-6.47,1.49-11.08.09-2.51,1.52-3.63,2.24-5.66.73-2.05.71-4.31,1.62-6.47,1.96-4.66,4.24-6.2,5.23-12.01.59-3.47-.22-7.73.18-10.17.1-.59,1.28-2.44,1.47-3.36.67-3.14-.58-7.4-3.31-9.27-2.71-1.86-9.01-4.09-12.27-3.28-1.24.31-1.6,1.16-2.38,1.38-1.01.28-1.96-.21-3.12.08-1.79.45-2.73,2.27-4.24,3.15-1.56.91-4.09,1.31-5.49,2.14-1.15.68-3.11,3.17-4.46,4.24-4.31,3.4-9.08,6.37-13.36,9.83-2.2,1.38-5.99-.13-6.07-2.81-.03-.95.92-4.42,1.3-5.45,1.25-3.33,2.56-3.79,2.99-7.97.97-9.41-1.31-17.04-12.14-16.61-3.76.15-6.76,1.02-9.78,3.27-1.88,1.4-2.89,3.56-4.46,4.88-1.86,1.56-4.28,1.82-6.2,3.2-1.84,1.32-2.52,3.39-3.73,4.57-1.11,1.09-3.33,1.61-4.47,2.53-1.33,1.07-1.69,3.53-3.21,4.89-1.11,1-2.68,1.43-3.84,2.47-3.1,2.78-6.08,7.83-9.04,10.64-.4.38-.83.71-1.29.99.47-1.69.77-3.39.56-5.19-.1-.8-.33-1.5-.61-2.16.11-1.26.2-2.53.18-3.82-.06-3.08-1.51-4.77-2.95-6.96.04-2.74-.09-5.42-2.27-7.3-3.3-2.83-8.1-.93-9.92,2.57-2.12,4.08-3.05,9.22-4.34,13.69-1.7,1.84-3.4,4.68-3.3,6.17.06.95.58,1.83.56,2.67-.03,2.22-3.44,10.66-4.66,12.79-.98,1.73-2.52,3.06-3.45,5.03-.96,2.04-1.14,4.12-2.07,6.11-1.58,3.37-4.88,6.07-6.66,9.6-1.2,2.38-1.54,4.74-2.54,7.03-1.92,4.36-6.31,6-9.95,8.96-4.85,3.95-8.68,8.64-13.06,12.64-6.74,6.17-12.38,5.48-12.22-4.76.04-2.62,1.64-5.6,1.75-7.98.13-2.79-.62-3.63.59-6.63,1.26-3.12,1.54-4.67,2.52-7.69,1.65-5.07,4.79-7.16,5.8-13.51.54-3.38-.32-7.65.06-9.95.1-.63,1.31-2.41,1.54-3.63.75-4.04-1.06-7.95-4.71-9.75-3.14-1.55-7.45-3.39-10.93-2.52-1.24.31-1.6,1.16-2.38,1.38-1.01.28-1.96-.21-3.12.08-1.74.44-2.75,2.23-4.24,3.15-1.6.98-3.9,1.37-5.4,2.21-1.38.77-3.23,3.26-4.67,4.39-1.5,1.18-3.55,2.28-5.08,3.43-1.93,1.45-6.02,5.25-7.84,6.1-1.83.85-4.5.81-5.61-1-.43-.7-.47-1.37-.5-2.17-.13-4.56,3.61-7.99,4.1-12.92.94-9.55-1.3-17.14-12.22-16.67-3.85.16-7.14,1.2-10.18,3.61-1.72,1.37-2.44,3.23-4.08,4.53-2.62,2.08-5.23,2.05-7.84,4.81-.8.85-1.48,2.4-2.07,2.97-1.11,1.09-3.34,1.61-4.47,2.53-1.25,1.01-1.37,2.97-2.43,4.22-1.21,1.41-3.43,2.07-4.8,3.33-1.3,1.2-2.63,2.86-3.97,4.57-.8.04-1.63.34-2.43.98-.72.57-1.43,1.05-2.14,1.45.4-2.31.65-4.66.71-7.05.08-3.27.29-7.58-1.98-10.15.24-2.3-.31-4.41-3.13-5.82-5.55-2.78-8.74,4.05-11.02,7.75-3.22,5.22-6.32,10.51-9.32,15.87-1.13,2.01-.49,3.78.87,4.87-.69,3.15-3.16,9.16-4.15,11.07-.81,1.55-2.63,3.34-3.47,5.02-.91,1.83-1.14,4.01-2.1,5.76-2.27,4.15-7.39,8.77-10.41,12.62-2.93,3.74-5.9,7.89-8.67,11.74-.87,1.21-1.55,3.36-2.55,4.44-.97,1.05-2.68,1.64-3.75,2.54-6.25,5.2-13.09,12.39-20.88,15.21-2.94,1.06-5.82.41-6.06-3.12-.14-2.07,2.23-15.81,3.11-17.58.7-1.41,2.52-2.71,2.96-4.45.64-2.54-.21-4.19,1.23-7.09,1.29-2.59,1.52-4.2,2.53-6.4.73-1.59,2.38-3.53,3.22-5.21,1.88-3.76,3.18-7.63,5.21-11.39.44-.81,1.87-2.2,2.17-2.88.53-1.18.61-3.2,1.27-4.41.64-1.17,2.44-2.44,3.34-3.83,1.02-1.56,1.32-3.37,2.13-4.78.83-1.44,2.72-2.58,3.31-3.85,1.09-2.31,1.72-3.95,2.98-6.37,1.83-3.55,2.94-7.09-.17-10.33-2.1-2.19-5.16-.7-7.15,1.03-3.01,2.62-2.97,6.69-5.17,10.13-3.24,5.07-7.6,10.1-10.77,15.41-1.87,3.14-2.74,6.79-4.46,9.72-1.16,1.97-3.43,3.82-4.28,5.99-.82,2.13-.87,4.86-1.63,7.1-.58,1.7-1.82,3.47-2.33,5.26-.44,1.56-.44,3.99-.89,5.43-.61,1.99-3.74,3.71-4.63,6.36-.63,1.87-.23,3.93-.62,5.64-.23,1.01-1.12,2.03-1.47,3.04-2.63,7.56-.43,15.72,2.63,22.85,1.64,3.83,4.37,2.81,7.33,3.81.99.34,2.23,1.63,3.19,1.69.88.06,5.77-1.04,6.89-1.35,2.34-.65,8.56-3.98,10.9-5.31,3.64-2.07,6.53-5.1,9.32-8.16,1.72,2.12-.01,4.77,2.47,6.7,2.6,2.02,7.69.53,10.17-1.3,7.22-5.34,10.18-12.72,15.51-19.1,4.07-4.87,8.61-9.24,12.55-14.33,1.38-1.78,2.72-3.56,4.1-5.32,1.94-2.48,2.32-6.68,4.1-8.87,1.4-1.73,3.66-2.29,5.32-3.56,2.82-2.15,3.39-5.46,5.03-8.3,1.44-2.49,3.73-4.39,5.29-6.81,1.26-1.95,2.02-4.8,3.42-6.33,4.74-5.2,9.83-8.65,15.54-12.64,2.56-1.79,4.58-4.43,8.18-4.55,1.69-.06,3.89,1.14,4.1,2.96.07.61-1.58,7.39-1.9,8.46-.97,3.23-4.58,8.23-4.98,10.6-.3,1.76.64,3.51.19,5.31-.11.46-3.37,8.03-3.72,8.68-1.84,3.42-3.5,4.08-5,8.65-1.91,5.85-3.73,8.95-5.97,14.34-1.43,3.44-2.11,7.22-3.85,10.52-1.66,3.14-3.89,3.65-2.14,7.81,1.06,2.52,2.76,5.11,5.87,4.46l8.17-3.91c1.43-2.97,4.14-5.07,5.96-7.67,1.56-2.23,1.92-5.13,3.3-6.99.72-.98,1.96-1.66,2.7-2.72,1.63-2.35,1.08-5.26,2.66-7.26,1.17-1.49,3.52-2.35,4.65-3.6.86-.95,1.44-2.87,2.5-4,2.03-2.14,3.99-3.32,5.79-6.09,1.55-2.37,2.68-7.34,4.52-8.7.71-.53,1.49-.47,2.16-.89,2.62-1.65,2.79-3,4.53-5.15,5.03-6.22,12.49-11.57,19.3-15.81,2.24-1.4,4.65-4.48,7.43-3.44,3.85,1.44,2.24,9.86.83,12.82-.88,1.85-2.9,3.76-3.59,5.57-1.16,3.06-1.46,8.22-2.35,11.7-2.86,11.2-11.99,26.3-2.86,36.77,3.39,3.89,12.14,5.15,16.79,3.5,1.46-.52,3.57-3.04,5.14-3.71,2.22-.94,5.61-1.03,7.77-2.29,1.28-.75,2.54-2.55,3.73-3.52,1.15,6.63,8.68,5.46,12.71,2.24,6.7-5.37,9.9-12.11,14.93-18.59,3.53-4.54,7.92-8.37,11.47-12.92,1.55-1.99,5.07-6.44,6.17-8.37,1.77-3.1,1.67-6.7,4.94-9.02.94-.67,2.7-1.14,3.67-1.95,2.93-2.43,3.36-5.95,5.11-8.8,1.22-1.99,3.67-3.98,5.05-6.12,1.3-2.03,2.1-4.87,3.76-6.71,4.48-4.98,11.44-10.3,17.03-14.05,3.49-2.35,8.67-5.39,10.64.27-1.27,3.37-1.47,7.08-2.75,10.44-.73,1.92-4.06,6.95-4.24,8.28-.16,1.22.35,2.6.37,3.84.04,2.25-1.16,2.88-1.9,4.64-1.89,4.47-2.39,5.35-4.91,9.37-2.17,3.48-2.34,7.59-3.82,11.19-.81,1.98-2.55,4.01-3.46,5.99-1.52,3.3-2.24,7.34-3.7,10.63-1.2,2.69-4.25,5.41-3.53,8.34.92,3.73,3.7,7.35,7.87,5.38,1.34-.64,2.68-1.34,4.02-2,4.15-2.02,2.83-2.36,5.13-5.33,3.13-4.05,3.44-3.93,5.66-8.78,1.09-2.37,2.72-2.98,3.85-4.71,1.35-2.06,1.07-5.22,2.45-7.1,1.14-1.55,3.72-2.49,4.85-3.77.75-.85,1.46-3.12,2.27-4.02,1.62-1.79,3.72-2.92,5.4-5.27,1.93-2.7,3.24-8.37,5.59-9.8,1-.61,2.2-.73,3.27-1.64,2.08-1.77,5.25-8.08,7.4-9.66,1.63-1.19,4.02-1.97,5.82-3.5,3.86-3.29,4.65-3.98,9.07-6.74,2.23-1.39,4.17-4.35,7.12-3.48,4.35,1.28,2.38,10.02.93,13.03-.87,1.81-2.75,3.56-3.37,5.1-1.18,2.96-1.57,8.25-2.43,11.64-2.93,11.58-11.7,25.7-3.13,36.7,3.43,4.4,10.58,5.31,15.78,4.17,2.91-.64,3.94-2.89,6.2-3.84,2.31-.97,5.92-1.18,8.03-2.4,2.91-1.68,5.5-7.13,8.26-9.64,2.42-2.2,5.59-3.89,8.03-5.95,3.3-2.78,3.81-6.55,7.28-9.11.58.27.56.64.69,1.16,2.24,8.71,5.95,16.15,14.71,19.87,5.41,2.3,21.91.72,27.84-.65,2.52-.58,14.43-5.58,16.61-6.95,4.13-2.6,9.25-7.2,13.82-9.14,2.39-1.01,3.67-.4,5.66-2.65,3.41-3.87,7.05-6.39,10.35-9.94,1.32-1.42,2.17-3.44,3.83-4.73,2.72-2.11,7.59-3.66,9.87-5.8,3.69-3.47,2.93-7.78,6.49-11.77,1.2-1.34,2.85-2.38,3.95-3.9,1.05-1.47,1.46-3.61,2.48-4.82.68-.8,1.68-1.1,2.32-1.73,3.66-3.63,4.15-9.29,6.2-13.51.88-1.81,2.23-3.19,3.05-5.34.4-1.06.64-3.59,1.24-4.35.53-.67,2.84-1.74,3.89-2.91,2.4-2.68,4.74-8.96,8.74-9.42,2.78-.32,10.64,3.71,12.32,6,2.93,4.01-2.38,8.95-4.03,12.26-1.09,2.17-.67,4.66-1.77,6.93-2.07,4.29-8.7,9.35-10.17,14.02-.79,2.51.04,5.9-1.07,8.19-.91,1.86-3.62,3.37-4.29,5.33-.64,1.89-.29,4.62-.68,6.56-.36,1.77-1.91,3.98-1.88,5.88.02,1.19.62,2.65.63,4.1.01,3.54-1.42,5.8.34,9.49,1.35,2.81,7.37,4.82,10.36,4.87,1.43.02,2.78-.38,4.16-.37,4.49.03,9.15,2.76,13.5.21,1.31-.77,2.38-2.54,3.59-3.31,2.09-1.33,4.9-2.18,7.19-3.71,2.07-1.38,10.48-7.51,11.6-9.04,1.83-2.5.85-2.7,3.68-5.08,4.76-4.01,2.66-4.03,5.08-7.94.83-1.35,3.11-3.15,4.28-4.7,1.21-1.59,3.88-5.27,4.78-6.89.72-1.31.75-2.81,1.64-4.2,1.53-2.4,4.58-3.87,6.44-5.82,3.1-3.28,4.27-10.94,6.42-15.07-1.44-4.63-5.84-4.66-9.73-2.77ZM615.34,246.06c1.3-1.62,3.18-3.63,4.27-5.19,3.46-4.99,7.34-8.3,11.24-12.94,2.25-2.68,3.61-5.92,6.6-8.04,1.4-.99,3.1-1.36,4.22-2.17,1.48-1.06,3.74-4.01,5.38-5.45,3.79-3.3,5.96-4.04,10.04-6.3,2.6-1.44,2.28-2.83,6.37-2.77,1.77.03,5.75,3.27,6.39,5,.87,2.39-1.08,7.27-2.5,9.36-1.04,1.53-2.57,2.5-3.57,3.81-2.64,3.45-5.62,9.27-9.24,11.61-1.25.81-3.04,1.11-4.16,2.21-1.35,1.33-2.34,4.48-4.15,6.41-3.34,3.57-5.35,3.16-8.98,5.21-1.08.61-2.13,1.94-3.38,2.51-1.98.9-3.67.61-5.46,1.2-1.46.48-3.17,2.52-4.93,3.23-1.15.47-2.64.68-3.92,1.12-2.01.69-2.89,2.18-5.55,1.08-1.15-.48-2.96-2.67-3.02-3.92-.08-1.56,3.25-4.6,4.34-5.95ZM269.43,285.07l-4,1.21c-.39,2.66,3.23,3.55,2.67,5.8-.38.77-4.47,1.02-5.16.79-.83-.28-1.18-2.07-2.43-2.24,1.77-1.43.03-1.75.16-2.74.03-.21,1.86-3.51,2.04-3.61,1.27-.75,2.91-.35,4.25-.03l.06-2.54.9.04c.12,1.16.64,2.17,1.46,2.89l.05.41ZM265.02,279.19c.23.46.55.85.93,1.17-.31.27-.72.46-1.04.52-1.13.21-4.13-.5-2.15-1.35.83-.35,1.52-.38,2.26-.34ZM253.41,314.07c-.75-.46-1.81-.24-2.47-.95.38-.53.9-1.2,1.54-1.39,2.38-.74,2.74,2.53,5.12,2.76-1.9,2.6-2.86.4-4.18-.41ZM260.75,309.22c-1.28-1.92,1.74-3.4,3.49-2.58.68.78-2.12,4.64-3.49,2.58ZM265.4,301.25l2.28.99c-.92.1-1.22,1.32-1.86,1.6-3.18,1.4-2.86-1.08-3.89-1.45-2.47-.9-5.37,1.45-2.21,2.8-.34.82-1.46.81-1.91,1.24-.63.61.02,1.36-1.89,1.6-4.26.53-5.25-4.31-1.19-5.31-4.7-2.35-.48-2.93-.4-3.38.15-.94-1.53-.34-1.85-.73l-.26-1.73,4.98-.8.3,2.46c.79,1.62.14,4.03,2.44,1.75,1.69-1.68,3-4.21,5.55-4.44.61-.52-.75-3.25,2.35-.63-.08,1.46-.75,2.49.61,3.57l2.86.66c-1.62,1.86-4.58-.36-5.91,1.8ZM273.78,292.84l-3.33.34-1.09-1.08c-.25-.78.29-.53.82-.63,1.11-.22,2.28-.22,3.39-.41l.22,1.78ZM323.24,273.14l1.84,1.76c-.31.81-1.49.76-2.03.33-.68-.54-.92-1.95.19-2.1ZM321.29,276.44c1.7,1.77,3.4.83,5.13,1.28.47.12,4.35,1.91,4,2.49-1.27.23-2.11,1.4-3.3,1.76-.53.16-4.9,1.08-5.16,1.04-1.45-.27-.25-2.39-.32-3.07-.07-.65-2.14-2.87-.35-3.51ZM315.84,300.26c-.73-.44-1.37-3.33-.21-3.75.28-.1,5.65.7,5.71,1.25-.36.73-5.23,2.66-5.49,2.5ZM321.44,295.56c-.11-.67.33-1.42.06-2.08-.28-.67-1.09-.6-1.4-.91-1.32-1.35.22-3.95,1.71-4.43.77-.25,4.42-.82,3.69.64l-2.85,1.96,1.31,1.66-.87,1.89,1.35.75,2.14-1.72-1.68,4.17c-1.32-.08-3.19-.35-3.46-1.95ZM327.69,299.52c-.35,1.21-3.88.69-3.95.12.26-.3.46-.8.85-.94.43-.16,3.18-.11,3.1.82ZM333.04,291.47c-1.71-3.09-4.48.55-5.55-2.37,0-.25,1.99-.87,1.11-2.65-.67-1.35-4.01.81-3.92-2.8l7.39-1.43.25,2.08c-1.25.2-2.65.13-3.41,1.34.05.5,3.29.44,3.97,1.51.58.91.68,3.31.16,4.32ZM427,293.34c-.05-.4.09-2.27.89-1.74.36,1.17,1.6,1.82,2.76,1.84-.43,1.8-3.42,1.74-3.65-.09ZM439.43,258.41c.43,2-3.92,1.86-4.21,1.04-.51-1.45,3.44-1.14,4.21-1.04ZM433.7,267.51c-.11-.39,1.68-3.94,1.99-4.13,1.12-.73,3.1-.27,4.34.02l.23-2.57.62-.03c.28.65.71,1.19,1.25,1.62l.37,1.8-4.03,1.4c-.42,2.66,3.67,3.76,2.71,5.62-.21.4-.66.39-1.03.48-3.37.83-4.3.47-6.57-1.94l-.07-.52,1-.67c-.27-.31-.7-.68-.8-1.07ZM434.82,289.14c-2.91-1.98-.27-4.17,2.49-3.38.5.44-1.58,3.65-2.49,3.38ZM438.47,280.38l1.88.68-1.45,1.92c-3.38,1.49-2.93-2.18-6.12-1.74-.15-2.43,1-2.6,2.24-3.88,1.17-1.19,1.28-2.45,3.53-2.23l-.22-1.78c3.76-.48,1.38,3.02,2.88,4.33,1.02.89,2.21.09,3.16.9-1.62,1.85-4.58-.37-5.91,1.8ZM446.85,271.97c-1.48.06-4.84,1.22-4.44-1.06l.43-.54,3.79-.19.22,1.78ZM495.96,252.32c.76.67,1.95,1.07,1.9,2.29-1.49.41-3.04-.91-1.9-2.29ZM493.68,255.84c1.18-.52,2.14.9,2.91,1.02.83.13,1.72-.26,2.65-.09,1.03.19,2.89,1.79,4.17,1.88l-.12.75c-2.78,1.9-5.62,2.14-8.84,2.85.07-2.29-.34-4.18-.77-6.41ZM488.59,279.17c-.6-1.02-1.21-2.64.07-3.44.93.3,5.65.23,5.74,1.16-.63.9-5.12,2.6-5.81,2.28ZM494.15,272.27c-.36-.78-2.38-.43-1.19-3.3.7-1.68,4.72-2.63,5.69-1.8.91.78-2.86,2.01-2.92,2.72l1.32,2-.75,1.35c.71,2.37,2.63-.89,3.39-.41l-1.91,3.52c-4.02.77-2.78-2.22-3.63-4.07ZM496.87,279.3c-.58-1.99,3.65-1.61,3.85-1,.49,1.52-3.14.91-3.85,1ZM506.24,270.22c-.96.27-1.44-1.04-2.2-1.13-.87-.11-2.25,1.1-3.19-.01-.9-1.07,2.32-2.69.08-3.79-1.77-.87-3.44.48-3.2-2.71,1.33.27,6.77-1.53,7.32-.91v1.67c-1.07.42-2.41.3-3.08,1.44,3.52,1.01,5.08,1.11,4.26,5.45Z"/>
    <path class="st0" d="M176.02,117.94c.07.03.13.53.6.66,3.31.91,5.7-.51,8.65-.8,2.45-.24,11.77.99,13.64,2.37,1.07.79,2.23,2.58,3.34,3.55,1.38,1.2,5.11,3.18,5.72,4.62.42,1,.77,5.02.79,6.29.1,6.71-1.08,8.82-3.54,14.63-2.18,5.12-1.44,4.54-5.14,8.86-5.1,5.95-8.6,8.05-14.46,12.84-2.86,2.33-7.52,7.86-10.95,8.82-1.8.5-3.49.32-5.43,1.22-1.8.83-3.27,2.84-4.77,3.67-.81.45-5.67,2.23-6.68,2.52-1.11.32-1.59-.32-2.49-.34-2.88-.05-3.75,1.18-5.94,1.75-1.56.4-3.42.22-4.93.65-.94.26-1.71,1.08-2.78,1.36-4.81,1.28-9.97-1.15-14.93-1.03-2.8.07-6.1,1.17-8.84.58-2.12-.45-3.66-2.56-6.28-2.67-1.32-.06-2.58.38-3.82.35-1-.02-2.15-.61-3.39-.61-9.06-.02-12.7,11.23-9.73,18.56,2.28,5.62,8.13,6.56,12.14,10.01,2.84,2.44,3.81,6.12,6.64,8.79,5.03,4.74,10.95,7.41,16.52,11,1.86,1.2,3.87,4.5,5.09,5.02.92.39,1.77.07,2.7.25,2.95.57,5.54,5.73,7.63,7.74,1.79,1.73,4.45,2.13,6.28,3.7,3.96,3.41,10.27,11,12.47,15.75.83,1.8,3.48,8.61,3.82,10.35s-.12,3.09.23,4.63c.28,1.22,1.16,1.81,1.47,3.06.78,3.1-.26,4.62-.21,7.26.06,3.12,1.08,7.01,1.18,9.92.04,1.07-.7,2.12-.7,3.06,0,3.61.81,6.23-.03,10.27-.77,3.69-2.23,4.1-3.64,6.82-1.14,2.2-1.67,5.44-2.95,7.68-1.04,1.84-3.01,3.58-4.19,5.42s-2.01,4.53-3.25,6.16c-1.17,1.53-3.33,2.79-4.56,4.16-1.69,1.88-2.55,4.99-4.23,6.67-1.8,1.8-8.86,7.42-11.04,8.75s-5.27,2.42-7.46,3.82c-1.81,1.16-3.75,3.75-5.47,4.42-1.45.56-3.03.27-4.34.78-.92.36-2.53,2.12-3.56,2.69-5.33,2.97-9.96,2.74-15.19,4.2-1.17.33-1.98,1.39-3.45,1.5-1.08.08-2.18-.65-3.37-.67-5.6-.11-10.86.42-16.45.42-1.5,0-5.59-.01-6.88-.27-2.42-.48-5.89-3.09-8.47-4s-5.29-1.05-7.82-1.95c-2.54-.9-5.14-2.69-7.6-3.87-4-1.9-7.36-2.26-10.46-5.98-1.88-2.26-3.37-5.95-5.29-8.05-2.52-2.75-6.47-5.42-9.43-7.7-3.83-2.94-2.49-3.95-3.75-7.96-1.06-3.41-3.58-6.72-4.69-10.45-.79-2.65-.84-5.1-1.42-7.63-.81-3.5-2.64-4.5-1.99-8.74s1.54-4.59.97-9.26c-.88-7.22.2-11.29,1.2-18.38.41-2.93.14-3.56.18-6.31.03-2.59,1.69-3.96,2.56-6.05.96-2.32.97-4.95,1.8-7.29.49-1.37,2.13-3.43,2.31-4.31.26-1.27-.3-2.31-.04-3.58.41-1.98,3.57-4.94,4.68-6.96,2.23-4.03,4.58-14.25,8.58-16.16.67-.32,1.5-.28,2.13-.59,1.47-.72,5.3-3.06,6.62-3.06,2.2,0,3.4,2.74,3.23,4.67-.12,1.35-1.85,7.76-2.46,9.03-1.33,2.79-3.12,3.43-5.09,5.36-8.01,7.89-8.65,20.32-12.03,30.21-1.56,4.56-4.74,10.15-3.45,15.31.95,3.79.3,7.33.99,11.48.36,2.17,1.76,5.2,1.97,6.97.4,3.33-.74,7.72-.07,11.57,2.26,13,18.2,26.83,28.82,33.93,4.3,2.88,8.03,3.46,12.69,5.19,1.79.67,4.89,2.81,6.58,2.51,1.24-.22,2.54-1.44,3.86-1.46,1.51-.03,4.86,1.54,6.59,1.9,9.96,2.06,11.49-2.79,19.56-4,2.98-.45,6.28.96,9.33.25,5.13-1.18,7.53-5.43,11.67-7.29,2.65-1.19,6.68-1.84,9.08-3.52,1-.7,4.9-5.83,5.74-7.11,1.04-1.58,1.73-3.84,2.84-5.18,2.65-3.19,8.17-3.71,9.26-8.21.3-1.25.12-2.54.51-3.79.64-2.04,2.72-3.4,3.87-5.02,1.17-1.65,4.16-8.43,4.19-10.26.02-1.48-.87-3.04-.64-5.01.29-2.44,3.15-6.66,3.13-8.85-.01-1.3-.77-2.47-.86-3.86-.11-1.72.64-3.99.4-5.82-.49-3.67-3.11-6.87-4.03-10.1-.38-1.33-.28-2.64-.73-4-1.17-3.59-4.33-5.25-6.29-8.01-1.25-1.76-2.03-4.21-3.41-5.93-1.45-1.8-5.77-3.86-7.98-5.46-7.23-5.24-14.09-9.51-21.86-14.04-1.57-.92-3.92-1.6-5.33-2.66-1.31-.98-2.61-3.13-3.96-4.41-1.86-1.76-4-2.92-5.79-4.95s-2.84-4.43-4.43-6.27-4.52-3.37-5.81-4.92c-2.31-2.77-7.13-11.85-7.94-15.35-.34-1.48-.22-3.18-.62-4.56-.33-1.14-1.32-1.63-1.45-3.08-.27-2.92,2.82-5.02,1.27-8.6-.49-1.14-4.86-7.09-5.79-7.83-1.5-1.18-5.5-1.85-7.49-2.79-4.27-2.01-8.62-7.39-12.34-10.57-4.79-4.1-10.12-7.02-14.06-12.07-1.31-1.68-4.95-6.65-5.69-8.37-1.46-3.35,2.85-7.33,6.39-6.07,2.75.98,3.52,3.28,5.35,5.1s6.12,3.83,7.36,5.41c.82,1.05,1.19,2.87,2.2,4.16,1.47,1.88,7.81,3.76,10.26,5.02,7.61,3.9,10.53,7.34,19.68,9.43,5.58,1.27,6.83-2.65,10.32-5.25,1.14-.85,3-1.46,4-2.34,1.39-1.23,1.3-4.12,2.8-5.22.86-.63,2.14-.59,3.21-1.03,2.73-1.13,7.1-8.23,9.5-10.6,1.93-1.9,4.46-3.05,6.8-4.34,3.52-1.94,5.71-2.55,9.38-3.92s7.26-5.09,10.41-6.34c2.03-.8,2.77-.37,4.8-2.03,2.72-2.23,2.09-3.19,6.66-3.1,1.11.02,2.05.63,3.02.66,3.9.14,5.51-2.79,8.38-4.35s5.12-1.15,7.75-1.99c1.06-.34.75-1.55,1.84-1.13ZM190.23,149.57c2.25-3.17,3.64-4.17,2.95-8.64-.4-2.63-4.63-9.57-7.14-10.53s-3.38.85-5.2,1.32c-2.85.74-6.64.5-9.63,1.15-2.49.54-4.3,2.4-6.83,2.11-1.44-.17-1.84-1.05-3.8-.45-4.26,1.31-6.99,3.96-10.31,6.42-3.77,2.8-7.46,1.21-11.5,4.19-6.97,5.14-16.54,11.03-22.15,17.44-3.73,4.27-3.73,8.09.41,12.19,4.96,4.91,16.63,4.35,22.8,2.48s9.99-1.66,15.81-2.75c6.38-1.19,9.24-4.42,14.46-7.35,2.27-1.28,6.08-2.42,7.97-3.67.43-.29,6.47-5.32,6.81-5.69,1.57-1.75,3.69-5.88,5.35-8.22ZM93.36,171.88l-2.85.34c0,2.71,2.9,2.05,2.85-.34ZM108.36,179.47c.32-3.13.3-7.82-4.06-6.74.76,1.46-1.22,2.65-.28,3.75.4.47,1.3.14,1.88.57.73.54.91,2.69,2.45,2.41ZM100.24,179.14c-.56-.34-3.93-1.88-4.42-1.98-2.37-.46-1.38,1.35-2,2.17-.35.47-2.13.94-1.79,2.46l7.26-.51c.9.3,1.71,3.25,2.6,2.93,2.29-1.94.3-3.91-1.64-5.08Z"/>
    <path class="st0" d="M250.45,205.05c7.07-2.23,8.46,4.32,5.72,9.33-.85,1.55-3.38,2.83-4.72,4.04-3.27,2.95-4.86,6.81-10.03,3.69-1.18-.71-3.36-3.29-3.5-4.62s3.84-6.37,4.95-7.42c.57-.54,7.03-4.84,7.58-5.01Z"/>
  </g>
  <path class="st0" d="M451.65,81.53c-.84-.68-1.63-1.38-2.2-2.23-.39-.59-.54-1.27-.6-1.97-.02-.25-.06-.52-.05-.76,0-.07-.01-.2-.02-.28-.64-.58-1.85-.66-2.62-1.04-1.1-.55-1.67-1.63-1.94-2.8-.22-.94-.15-1.85.03-2.75-3-3.86-5.98-7.82-8.41-12.05-.4-.7-2.51-1.22-3.2-1.9-1.17-1.16-1.87-2.74-1.71-4.4.05-.57.2-1.13.1-1.7-.38-2.22-1.58-3.9-1.77-6.33-.18-2.4-.19-4.86.4-7.2.45-1.78,1.14-3.49,1.87-5.17.76-1.74,1.49-3.48,2.56-5.05,1.03-1.51,2.29-2.86,3.56-4.17,1.1-1.13,2.12-2.31,3.14-3.5,2.2-2.56,4.49-5.18,7.28-7.12.65-.69,1.3-1.54,1.63-2.41-.04-1.07-.37-2.11-.92-3.04-.37-.28-.77-.52-1.2-.71-.09.04-.19.06-.28.08-1.74.2-3.3-.41-4.98-.74-.22.17-.45.34-.68.53-.81.63-1.58,1.32-2.43,1.88-1.53,1.02-2.98,2.11-4.18,3.52-1.15,1.35-2.12,2.85-3.34,4.12-.84.87-1.75,1.68-2.65,2.49-1.98,1.78-4,3.54-5.84,5.46-1.61,2.8-2.92,5.76-3.8,8.94.07,1.44.18,2.87.26,4.31.2,3.52-.78,6.96-.83,10.46,0,.42-.01.84-.02,1.26.77,4.12,2.17,8.13,3.98,11.98.48.6.98,1.19,1.47,1.78,1.08,1.3,1.96,2.56,2.76,4.05.79,1.49,1.92,2.57,3.18,3.67,1.29,1.13,2.89,2.27,3.55,3.91.59,1.47.42,2.99.67,4.51,0,.03.01.06.02.09.4.52.81,1.03,1.21,1.55.29.09.6.15.86.22,1.31.36,2.41.93,3.31,1.97,1.58,1.81,2.68,4.16,3.64,6.33.54,1.22,1.09,2.52,1.52,3.84.84.27,1.64.61,2.28,1.12,1.03.81,1.24,2.04,1.25,3.28,0,.85-.06,1.7-.15,2.55.45,1.05.88,2.11,1.25,3.2.53,1.57.96,9.3,2.27,9.78.24.09.51.1.7.27.25.22.25.6.22.92-.46,5.17-3.46,8.21-6.78,11.8-1.49,1.62-3.19,3.08-4.91,4.48-1.29,1.05-2.64,2.14-4,3.28.01.27.04.55.03.82-.03,1.95-1.58,3.53-3.15,4.47-1.54.92-3.37,1.42-4.71,2.66-.33.31-.79.76-.94,1.21-.14.42.02.92.08,1.34.13.91.12,1.79-.48,2.55-.59.74-1.49,1-2.19,1.58-.78.65-1.2,2.09-1.59,3-.9,2.06-1.75,4.11-2.18,6.32-.15.77-.25,1.55-.34,2.33.12,1.15.34,2.32.68,3.52.92,3.22,3.52,5.72,7.11,5.15,1.73-.28,4.24-1.56,3.95-3.65-.13-.92-.62-1.74-.91-2.62s-.37-1.95.25-2.64c1.2-1.36,1.28-1.35,1.57-3.09-.03-.25-.06-.48-.08-.67-.1-1.15-.18-2.46.54-3.44.42-.57,1.01-.91,1.65-1.18.03-.01.09-.04.15-.07.25-.37.51-.73.79-1.09.94-1.85,1.98-3.79,3.39-5.32.79-.86,1.77-1.7,2.92-2.02.42-.11.95-.3,1.38-.32.03,0,.03,0,.05,0,.1-.13.18-.25.24-.43.18-.54.21-1.11.45-1.63.24-.53.62-.96,1.01-1.39.75-.82,1.59-1.49,2.55-2.06,1.6-.95,3.47-1.44,5.19-2.15,2.35-2.56,4.27-5.32,5.73-8.27.24-1,.46-1.99.66-3,.58-2.98.97-5.99,1.24-9.01.26-2.96.4-5.92.5-8.89.02-.53.04-1.06.06-1.59.17-3.86-2.91-9.19-4.64-12.51-1.04-2-2.14-3.99-3.59-5.72-.81-.97-1.87-1.74-2.88-2.55Z"/>
  <path class="st0" d="M522.86,113.73c-.12-.21-.24-.42-.35-.63-.49-.9-1.06-1.8-1.2-2.84-.05-.38-.04-.75,0-1.12-.6-1.43-1.28-2.81-2.03-4.16-.35-.19-.68-.4-.99-.65-.62-.51-1.12-1.15-1.6-1.78-4.06-5.29-6.18-12.53-12.29-15.99-.43-.24-.66-.87-.59-1.33.12-.85.42-1.59.84-2.27-.62-1.35-1.15-2.76-1.52-4.17-.57-.28-1.13-.59-1.67-.97-.97-.68-.65-1.96.25-2.5.33-.2.61-.51.9-.79.03-.77.13-1.53.34-2.26.28-2.41,1.66-4.61,3.33-6.44.25-.27.55-.59.84-.92.36-1.69.04-3.46-1.22-5-.53-.65-1.25-1.18-2.06-1.57-.15.11-.29.22-.45.33-1.4.95-2.97,1.2-4.38.54-.5.52-1.08.95-1.77,1.34-.88.5-1.91.87-2.62,1.61-.04.04-.07.08-.1.12-1.65,2.42-2.77,5.05-3.4,7.8.23.42.27.95-.1,1.47-.08.12-.16.23-.24.35-.31,2.12-.35,4.29-.13,6.47.08.15.15.29.23.44.67,1.28,1.32,2.55,1.89,3.88.75,1.74.95,3.59,1.38,5.42.37,1.59,1.17,2.75,2.08,4.06.82,1.18,1.42,2.49,2.1,3.75.96,1.76,2.36,2.69,4.03,3.88,1.75,1.24,3.54,2.51,5.13,3.97,2.02,1.84,2.41,5,2.76,7.58.22,1.63.37,3.27.61,4.89.18,1.19.49,2.35.69,3.53.37,2.07.47,4.23.25,6.32-.44,4.21-3.32,7-5.95,10.03-3.17,3.64-3.34,7.54-5.69,11.44-.9,1.5-2.22,3.23-3.12,5.05-.4,1.56-.7,3.17-.84,4.83.11.43.26.85.5,1.27.51.2,1.06.38,1.41.8.97,1.16-.32,2.74.94,3.76,2.3,1.86,3.12.42,4.2-1.6,1.15-2.13,1.85-5.26,4.4-6.19.21-.08.42-.1.63-.09.45-1.2.88-2.4,1.32-3.6.99-2.71,2.09-5.41,3.72-7.81.84-1.23,1.84-2.37,2.95-3.37.29-.26.58-.5.88-.75.02-.03.03-.05.05-.08,1.18-2.02,2.28-4.08,3.23-6.18.13-1.29.32-2.53.73-3.78.41-1.25,1.06-2.6,1.1-3.95-1.16-1.88-.39-4.17.28-6.14.3-.87.64-1.72.94-2.59-.05-.43-.11-.87-.18-1.31-.13-.72-.28-1.43-.46-2.13Z"/>
  <path class="st0" d="M397.11,116.33c-.25-1.44-.63-2.86-1.02-4.26-.22-.78-.86-2.04-.77-2.84.05-.48.99-1.59.86-1.95-1.14-3.42-2.9-6.63-5.15-9.53-2.52-2.19-5.31-4.08-7.4-6.74-.18-.23-.28-.49-.3-.75-1.46-1.09-3.01-2.08-4.61-2.98-1.24-.2-2.51-.24-3.74-.08-1.74.23-3.17.66-4.02,2.31-.56,1.09-.99,2.62-.99,3.71,0,.39-.02.77-.04,1.16.08.25.18.5.29.74.05.02.1.04.12.05.48.18.9.43,1.27.8.47.48.67,1.11.81,1.76.38.29.79.56,1.22.79,2.68,1.45,4.65,2.77,6.55,5.27.53.7,1.03,1.44,1.71,1.99.97.79,3.14.29,3.34,1.78.18,1.38-.19,2.73-.57,4.05.38,1.38.57,2.7.59,3.98.93.31,1.27,1.35.75,2.22-.56.95-.43,2.1-.56,3.15-.17,1.31-.71,2.46-1.68,3.36-.49.46-1.08.77-1.7,1-.65.98-1.38,1.94-2.17,2.9-2.35,2.83-4.3,5.83-5.83,8.95-.23.94-.56,1.85-.77,2.8-.22.97-.34,1.95-.47,2.94-.24,1.87-.7,3.61-1.77,5.2-.16.24-.34.47-.52.7-.43,3.39-.36,6.86.25,10.37.38.98.63,2.02.91,3.03.56,1.95,1.28,3.96,3.22,4.9.69.33,1.15,1.11.83,1.88-.04.09-.08.2-.12.3.52.21,1.08.34,1.64.37,1.14-.56,2.34-.99,3.5-1.54,1.58-.75,3.21-2.06,3.15-3.99-.06-1.88-1.31-3.64-2.1-5.28-.86-1.78-1.36-3.58-1.43-5.56-.05-1.39.4-2.18,1.46-3.04,1.44-1.17,1.75-3.28,2.23-4.95.3-1.05,1.98-3.93,1.93-4.75-.02-.34-.02-.69.03-1.03.23-1.66,1.31-3.19,2.33-4.46,1.06-1.32,2.87-2.57,3.01-4.39.05-.64.6-1.17,1.21-1.27.72-.12,1.36-.34,1.92-.64,1.46-.77,2.46-5.73,2.71-7.34.27-1.7.16-3.39-.13-5.07Z"/>
</svg>