<?xml version="1.0" encoding="UTF-8"?>
<svg id="Layer_1" xmlns="http://www.w3.org/2000/svg" version="1.1" viewBox="0 0 207 207">
  <!-- Generator: Adobe Illustrator 30.0.0, SVG Export Plug-In . SVG Version: 2.1.1 Build 123)  -->
  <path d="M27.94,115.02l-7.09.96-8.01,6.83-.17-1.21,7.3-6.35.08.55-8.72-4.14-.17-1.21,9.54,4.46,7.09-.96.14,1.07Z"/>
  <path d="M28.11,93.59c-.14,1.06-.48,2.04-1,2.94-.52.89-1.2,1.64-2.03,2.26-.83.61-1.77,1.05-2.82,1.32-1.06.27-2.19.33-3.39.16-1.21-.16-2.28-.51-3.22-1.05-.94-.54-1.73-1.22-2.36-2.03-.64-.82-1.09-1.72-1.36-2.71-.27-.99-.34-2.02-.2-3.08s.48-2.04,1-2.92c.52-.88,1.2-1.64,2.03-2.26.83-.62,1.77-1.06,2.83-1.34s2.18-.33,3.37-.17c1.21.16,2.29.51,3.23,1.05.95.54,1.74,1.21,2.38,2.02s1.09,1.71,1.36,2.71c.27,1,.34,2.03.19,3.1ZM27.08,93.45c.13-.99.07-1.93-.2-2.8-.27-.88-.69-1.65-1.28-2.34-.59-.69-1.29-1.25-2.12-1.68-.82-.44-1.72-.72-2.68-.85-.95-.13-1.88-.09-2.78.12-.9.21-1.73.56-2.47,1.06s-1.37,1.14-1.86,1.91c-.49.77-.81,1.66-.94,2.67-.13,1-.06,1.93.21,2.81.27.88.7,1.66,1.29,2.34.59.69,1.29,1.25,2.11,1.68s1.7.72,2.65.84c.97.13,1.9.09,2.81-.11.91-.2,1.74-.56,2.49-1.07.75-.51,1.37-1.15,1.85-1.92.49-.77.8-1.66.93-2.65Z"/>
  <path d="M34.15,72.28c-.43.97-1.03,1.73-1.79,2.27-.76.55-1.62.85-2.58.92s-1.95-.13-2.99-.59l-9.7-4.33.44-.98,9.78,4.36c.83.37,1.62.53,2.4.48.77-.05,1.47-.29,2.1-.72.63-.44,1.11-1.04,1.46-1.81.35-.79.48-1.55.38-2.3-.1-.75-.39-1.43-.87-2.04s-1.14-1.1-1.96-1.46l-9.78-4.36.44-.98,9.7,4.33c1.03.46,1.84,1.07,2.43,1.83.59.76.93,1.6,1.04,2.52.1.93-.06,1.88-.5,2.86Z"/>
  <path d="M41.21,59.01l-12.56-9.94,3.25-4.11c.62-.79,1.33-1.35,2.11-1.7.79-.35,1.6-.46,2.43-.35.83.11,1.62.46,2.36,1.05.91.72,1.49,1.59,1.73,2.6.24,1.01.13,2.03-.33,3.05l7.57,1.11-.79.99-8.1-1.23,1.24-.5-3.31,4.18,5.06,4-.67.84ZM36.07,53.56l2.59-3.27c.49-.62.79-1.26.91-1.93.12-.67.05-1.31-.19-1.95-.24-.63-.65-1.18-1.24-1.64-.6-.47-1.22-.75-1.87-.84-.65-.09-1.29,0-1.92.28-.63.27-1.18.72-1.67,1.33l-2.59,3.27,5.98,4.74Z"/>
  <path d="M67.86,35.59c-.94.52-1.93.83-2.96.94-1.03.11-2.04,0-3.02-.29s-1.9-.8-2.74-1.49c-.84-.69-1.56-1.57-2.15-2.64-.59-1.07-.94-2.14-1.07-3.22-.12-1.08-.05-2.11.23-3.11.28-.99.74-1.9,1.37-2.7.64-.81,1.42-1.47,2.37-1.99.94-.52,1.92-.83,2.95-.93,1.02-.1,2.03,0,3.02.29.99.3,1.91.79,2.75,1.48.84.69,1.56,1.56,2.14,2.62.59,1.07.94,2.14,1.07,3.23s.06,2.12-.22,3.11c-.27.99-.73,1.89-1.37,2.7-.64.81-1.43,1.47-2.38,1.99ZM67.37,34.69c.88-.48,1.59-1.09,2.14-1.82.55-.73.92-1.54,1.12-2.42s.24-1.78.1-2.7c-.14-.92-.44-1.81-.91-2.66-.46-.84-1.04-1.56-1.74-2.17-.7-.6-1.47-1.06-2.32-1.36-.84-.3-1.73-.43-2.64-.36-.92.06-1.82.34-2.71.83-.88.48-1.59,1.09-2.13,1.83-.54.74-.92,1.55-1.12,2.43-.2.88-.24,1.78-.1,2.69.14.92.43,1.79.9,2.64.47.85,1.06,1.59,1.76,2.2.7.61,1.48,1.07,2.33,1.37.85.3,1.73.42,2.65.35.91-.07,1.81-.34,2.69-.83Z"/>
  <path d="M85.87,27.99l-7.65-14.87,1.14-.21,7.12,14-.55.08,1.76-15.64,1.01-.19,7.28,13.95-.54.12,1.59-15.63,1.14-.21-1.77,16.63-1.01.19-7.33-14.07.59-.11-1.76,15.77-1.01.19Z"/>
  <path d="M109.12,25.54l1.91-15.9.85.1,8.24,15.43-.34-.04,1.71-14.24,1.07.13-1.91,15.9-.85-.1-8.29-15.52.41.05-1.72,14.32-1.07-.13Z"/>
  <path d="M138.83,32.88l7.88-13.95,4.46,2.52c1.35.76,2.35,1.7,3.02,2.83.67,1.12.97,2.36.92,3.71-.05,1.35-.48,2.73-1.28,4.15-.8,1.41-1.76,2.49-2.89,3.23-1.13.75-2.35,1.13-3.66,1.14-1.31.02-2.64-.36-3.99-1.12l-4.46-2.52ZM140.24,32.56l3.48,1.97c1.14.64,2.28.95,3.42.92,1.14-.03,2.21-.37,3.21-1.03,1-.66,1.84-1.59,2.53-2.82.69-1.22,1.06-2.43,1.1-3.61.04-1.19-.22-2.27-.78-3.27-.57-1-1.42-1.81-2.55-2.46l-3.48-1.97-6.93,12.26Z"/>
  <path d="M156.82,44.83l10.56-12.04.81.71-10.56,12.04-.81-.71Z"/>
  <path d="M168.82,58.32c-.66-.9-1.1-1.85-1.31-2.85-.22-.99-.23-1.99-.04-2.98.19-.99.58-1.93,1.17-2.82.59-.89,1.37-1.69,2.35-2.4.97-.71,1.98-1.2,3.01-1.49,1.03-.28,2.06-.37,3.06-.25,1.01.12,1.95.43,2.83.95s1.65,1.22,2.31,2.12c.65.89,1.07,1.81,1.27,2.75s.23,1.82.09,2.65c-.13.82-.38,1.52-.72,2.09l-.96-.55c.53-.97.77-2.01.71-3.11-.06-1.1-.47-2.17-1.23-3.22-.75-1.03-1.67-1.77-2.74-2.22-1.08-.45-2.23-.58-3.44-.4-1.21.18-2.4.7-3.56,1.54-1.16.84-2.01,1.82-2.56,2.91-.55,1.1-.77,2.23-.68,3.38s.52,2.25,1.27,3.28c.69.95,1.52,1.64,2.49,2.07.97.43,1.98.59,3.03.48,1.05-.11,2.05-.51,2.99-1.19l.52-.38-.17.71-3.86-5.3.78-.57,4.21,5.79-.85.62c-.78.56-1.62.96-2.52,1.18-.9.22-1.81.27-2.72.14-.91-.13-1.77-.44-2.59-.92-.82-.49-1.54-1.16-2.16-2.02Z"/>
  <path d="M177.14,72.34l14.7-6.36.43.99-14.7,6.36-.43-.99Z"/>
  <path d="M181.62,85.58l14.65-3.44-1.04-4.42.94-.22,2.31,9.84-.94.22-1.03-4.38-14.65,3.44-.25-1.05Z"/>
  <path d="M183.72,96.49l16.1,5.7.02,1.03-15.93,6.17-.02-1.18,4.21-1.61-.11-7.44-4.26-1.49-.02-1.18ZM188.97,99.48l.1,6.75,9.88-3.78v.52s-9.98-3.49-9.98-3.49Z"/>
  <path d="M182.75,117.48l15.64,3.47-.23,1.05-14.69-3.26-1.58,7.13-.94-.21,1.82-8.19Z"/>
  <path d="M173.96,142.34l13.48,8.65-2.83,4.41c-.54.84-1.19,1.48-1.94,1.9s-1.54.62-2.38.59-1.66-.3-2.46-.81c-.98-.63-1.63-1.43-1.97-2.42-.34-.98-.33-2.01.03-3.07l-7.64-.36.69-1.07,8.18.42-1.19.62,2.88-4.49-5.43-3.48.58-.91ZM179.62,147.25l-2.25,3.51c-.43.66-.66,1.33-.71,2.01-.05.67.08,1.31.38,1.92.3.6.77,1.11,1.4,1.51.64.41,1.29.63,1.95.65.66.02,1.29-.13,1.88-.46.6-.33,1.11-.83,1.53-1.49l2.25-3.51-6.42-4.12Z"/>
  <path d="M162.61,157.8l11.03,11.62-7.17,6.81-.67-.7,6.39-6.07-4.5-4.74-6.08,5.77-.67-.7,6.08-5.77-4.53-4.77-6.39,6.07-.67-.7,7.17-6.81Z"/>
  <path d="M142,173.03c.96-.52,1.94-.82,2.94-.89,1-.08,1.98.05,2.94.38.96.33,1.85.84,2.66,1.55.81.7,1.5,1.58,2.08,2.64.57,1.05.92,2.11,1.07,3.17s.09,2.09-.16,3.07c-.25.98-.69,1.86-1.3,2.66-.61.79-1.4,1.45-2.36,1.97-.93.5-1.87.78-2.8.84s-1.8-.04-2.6-.28c-.8-.24-1.46-.58-1.98-1l.67-.88c.89.66,1.88,1.04,2.97,1.13,1.09.1,2.17-.15,3.24-.72,1.12-.61,1.97-1.41,2.54-2.41.57-1,.85-2.11.82-3.33s-.38-2.45-1.07-3.71c-.68-1.26-1.52-2.24-2.53-2.93-1-.7-2.08-1.08-3.24-1.15-1.15-.07-2.29.2-3.41.81-1.07.58-1.87,1.35-2.38,2.31-.52.96-.74,2-.68,3.1l-1.1.08c-.06-.66.02-1.4.25-2.2.23-.8.63-1.58,1.19-2.33.56-.75,1.3-1.38,2.23-1.88Z"/>
  <path d="M127.83,179.08l4.46,15.39-1.03.3-4.45-15.39,1.03-.3Z"/>
  <path d="M117.05,181.62l1.39,15.96-5.23.46c-1,.09-1.89-.04-2.69-.37-.79-.33-1.43-.84-1.92-1.53-.49-.68-.78-1.5-.86-2.44-.08-.94.06-1.79.42-2.54.37-.75.91-1.36,1.63-1.83.72-.46,1.58-.74,2.58-.83l4.16-.36-.56-6.43,1.07-.09ZM116.62,189.1l-4.16.36c-.79.07-1.46.29-2.02.66-.57.37-.99.86-1.29,1.47-.29.61-.41,1.28-.34,2.03.07.76.29,1.4.68,1.94.38.54.89.94,1.52,1.21.63.27,1.33.37,2.12.3l4.16-.36-.66-7.6Z"/>
  <path d="M97.69,182.08l-2.49,15.82-9.77-1.54.15-.96,8.71,1.37,1.02-6.46-8.28-1.3.15-.96,8.28,1.3,1.02-6.5-8.71-1.37.15-.96,9.77,1.54Z"/>
  <path d="M70.74,174.41l-8.06,13.84-5.59-3.26c-.74-.43-1.3-.96-1.68-1.59-.37-.62-.56-1.29-.57-2,0-.71.19-1.39.58-2.06.42-.72.99-1.24,1.7-1.57s1.47-.41,2.26-.23l-.1.17c-.48-.46-.82-.98-1.03-1.57-.21-.58-.28-1.19-.22-1.81.06-.62.26-1.22.6-1.8.68-1.16,1.59-1.89,2.73-2.17,1.14-.28,2.4-.02,3.77.78l5.59,3.26ZM65.32,181.58l-4.55-2.65c-.88-.51-1.72-.68-2.52-.5s-1.44.67-1.91,1.48c-.47.81-.59,1.59-.37,2.36s.79,1.42,1.71,1.95l4.55,2.65,3.08-5.29ZM69.33,174.71l-4.5-2.62c-1.09-.64-2.1-.86-3.05-.67-.94.19-1.67.74-2.2,1.64-.53.92-.66,1.83-.38,2.73.28.9.92,1.64,1.92,2.23l4.68,2.73,3.52-6.04Z"/>
  <path d="M48.83,157.73c.74.78,1.29,1.65,1.66,2.62.37.97.53,1.96.49,2.99s-.29,2.04-.74,3.03c-.45.99-1.12,1.91-2,2.75-.88.84-1.83,1.46-2.84,1.85-1.01.39-2.03.58-3.06.57-1.03-.02-2.02-.23-2.96-.64-.94-.41-1.78-1-2.52-1.78-.74-.78-1.29-1.65-1.65-2.61-.36-.96-.52-1.96-.49-2.99.04-1.03.28-2.04.73-3.04.45-.99,1.11-1.9,1.99-2.73.88-.84,1.83-1.46,2.85-1.86s2.04-.59,3.06-.58c1.03.01,2.02.22,2.96.64.95.42,1.79,1.01,2.53,1.79ZM48.08,158.44c-.69-.73-1.46-1.26-2.31-1.6-.85-.34-1.72-.5-2.63-.47-.9.03-1.78.22-2.64.59-.86.37-1.64.89-2.34,1.56-.7.66-1.25,1.41-1.65,2.24-.41.83-.65,1.69-.73,2.59-.08.89.03,1.78.32,2.65s.79,1.67,1.49,2.41c.69.73,1.46,1.26,2.32,1.59.85.34,1.73.49,2.63.46.9-.03,1.78-.22,2.63-.59s1.62-.88,2.32-1.54c.71-.67,1.27-1.42,1.68-2.26.41-.84.66-1.71.73-2.61.07-.9-.04-1.78-.34-2.65-.3-.87-.79-1.66-1.48-2.39Z"/>
  <path d="M39.35,146.4l-9.68-.64-4.52,8.06-.63-1.17,4.05-7.17.07.13-8.2-.54-.62-1.15,9.22.65,4.76-8.48.63,1.17-4.3,7.57-.08-.15,8.67.55.63,1.17Z"/>
</svg>